<svg xmlns="http://www.w3.org/2000/svg" xmlns:xlink="http://www.w3.org/1999/xlink" width="1080" zoomAndPan="magnify" viewBox="0 0 810 809.999993" height="1080" preserveAspectRatio="xMidYMid meet" version="1.0"><defs><clipPath id="82d44bd9a6"><path d="M 15.195312 270.519531 L 285 270.519531 L 285 539.769531 L 15.195312 539.769531 Z M 15.195312 270.519531 " clip-rule="nonzero"/></clipPath><clipPath id="151daa0049"><path d="M 525 270.519531 L 794.445312 270.519531 L 794.445312 539.769531 L 525 539.769531 Z M 525 270.519531 " clip-rule="nonzero"/></clipPath></defs><g clip-path="url(#82d44bd9a6)"><path fill="#ffc107" d="M 149.90625 539.769531 C 75.507812 539.769531 15.261719 479.425781 15.261719 404.914062 C 15.261719 330.859375 75.507812 270.519531 149.90625 270.519531 C 223.847656 270.519531 284.097656 330.859375 284.097656 404.914062 C 284.097656 479.425781 223.847656 539.769531 149.90625 539.769531 Z M 149.90625 539.769531 " fill-opacity="1" fill-rule="evenodd"/></g><g clip-path="url(#151daa0049)"><path fill="#ffc107" d="M 659.738281 539.769531 C 585.796875 539.769531 525.546875 479.425781 525.546875 404.914062 C 525.546875 330.859375 585.796875 270.519531 659.738281 270.519531 C 734.132812 270.519531 794.382812 330.859375 794.382812 404.914062 C 794.382812 479.425781 734.132812 539.769531 659.738281 539.769531 Z M 659.738281 539.769531 " fill-opacity="1" fill-rule="evenodd"/></g><path fill="#fba610" d="M 149.90625 302.058594 C 92.855469 302.058594 46.753906 348.230469 46.753906 404.914062 C 46.753906 462.054688 92.855469 508.226562 149.90625 508.226562 C 206.503906 508.226562 252.605469 462.054688 252.605469 404.914062 C 252.605469 348.230469 206.503906 302.058594 149.90625 302.058594 Z M 149.90625 302.058594 " fill-opacity="1" fill-rule="evenodd"/><path fill="#fba610" d="M 659.738281 302.058594 C 603.140625 302.058594 557.039062 348.230469 557.039062 404.914062 C 557.039062 462.054688 603.140625 508.226562 659.738281 508.226562 C 716.332031 508.226562 762.890625 462.054688 762.890625 404.914062 C 762.890625 348.230469 716.332031 302.058594 659.738281 302.058594 Z M 659.738281 302.058594 " fill-opacity="1" fill-rule="evenodd"/><path fill="#f5f5f5" d="M 659.738281 472.113281 C 638.285156 472.113281 620.941406 454.742188 620.941406 433.257812 C 620.941406 427.769531 625.503906 423.199219 630.980469 423.199219 C 636.460938 423.199219 641.023438 427.769531 641.023438 433.257812 C 641.023438 443.769531 649.695312 452 659.738281 452 C 670.234375 452 678.449219 443.769531 678.449219 433.257812 C 678.449219 422.742188 670.234375 414.515625 659.738281 414.515625 C 638.285156 414.515625 620.941406 397.144531 620.941406 375.65625 C 620.941406 354.171875 638.285156 336.800781 659.738281 336.800781 C 681.1875 336.800781 698.53125 354.171875 698.53125 375.65625 C 698.53125 381.144531 694.425781 385.714844 688.492188 385.714844 C 683.015625 385.714844 678.449219 381.144531 678.449219 375.65625 C 678.449219 365.144531 670.234375 356.914062 659.738281 356.914062 C 649.695312 356.914062 641.023438 365.144531 641.023438 375.65625 C 641.023438 385.714844 649.695312 394.402344 659.738281 394.402344 C 681.1875 394.402344 698.53125 411.769531 698.53125 433.257812 C 698.53125 454.742188 681.1875 472.113281 659.738281 472.113281 Z M 659.738281 472.113281 " fill-opacity="1" fill-rule="evenodd"/><path fill="#f5f5f5" d="M 659.738281 356.914062 C 654.257812 356.914062 649.695312 352.34375 649.695312 346.859375 L 649.695312 327.203125 C 649.695312 321.714844 654.257812 317.144531 659.738281 317.144531 C 665.214844 317.144531 669.777344 321.714844 669.777344 327.203125 L 669.777344 346.859375 C 669.777344 352.34375 665.214844 356.914062 659.738281 356.914062 Z M 659.738281 356.914062 " fill-opacity="1" fill-rule="evenodd"/><path fill="#f5f5f5" d="M 659.738281 493.140625 C 654.257812 493.140625 649.695312 488.570312 649.695312 483.082031 L 649.695312 462.054688 C 649.695312 456.570312 654.257812 452 659.738281 452 C 665.214844 452 669.777344 456.570312 669.777344 462.054688 L 669.777344 483.082031 C 669.777344 488.570312 665.214844 493.140625 659.738281 493.140625 Z M 659.738281 493.140625 " fill-opacity="1" fill-rule="evenodd"/><path fill="#243a4f" d="M 404.59375 526.96875 C 402.769531 526.96875 400.941406 526.511719 399.574219 525.597656 C 396.378906 523.769531 394.550781 520.570312 394.550781 516.910156 L 394.550781 504.113281 L 317.417969 504.113281 C 311.9375 504.113281 307.375 499.539062 307.375 494.054688 L 307.375 448.34375 C 307.375 442.855469 311.9375 438.285156 317.417969 438.285156 L 394.550781 438.285156 L 394.550781 425.941406 C 394.550781 422.285156 396.378906 419.085938 399.574219 417.257812 C 402.769531 415.429688 406.417969 414.972656 409.613281 416.800781 L 496.792969 462.511719 C 499.988281 463.882812 501.8125 467.542969 501.8125 471.199219 C 501.8125 474.855469 499.988281 478.511719 496.792969 480.339844 L 409.613281 526.054688 C 407.789062 526.511719 406.417969 526.96875 404.59375 526.96875 Z M 404.59375 526.96875 " fill-opacity="1" fill-rule="evenodd"/><path fill="#4fba6f" d="M 404.59375 394.402344 C 403.226562 394.402344 401.398438 393.941406 400.03125 393.484375 L 312.851562 347.773438 C 309.65625 345.945312 307.375 342.746094 307.375 338.628906 C 307.375 334.972656 309.65625 331.773438 312.851562 329.945312 L 400.03125 284.230469 C 403.226562 282.859375 406.875 282.859375 410.070312 284.6875 C 412.808594 286.519531 414.636719 289.71875 414.636719 293.375 L 414.636719 306.175781 L 491.773438 306.175781 C 497.707031 306.175781 501.8125 310.289062 501.8125 316.230469 L 501.8125 361.488281 C 501.8125 366.972656 497.707031 371.542969 491.773438 371.542969 L 414.636719 371.542969 L 414.636719 384.34375 C 414.636719 388 412.808594 391.199219 410.070312 393.027344 C 408.246094 393.941406 406.417969 394.402344 404.59375 394.402344 Z M 404.59375 394.402344 " fill-opacity="1" fill-rule="evenodd"/><path fill="#f5f5f5" d="M 162.230469 474.855469 C 129.824219 474.855469 103.351562 444.226562 103.351562 406.742188 C 103.351562 368.800781 129.824219 338.171875 162.230469 338.171875 C 180.945312 338.171875 197.832031 347.773438 209.242188 364.6875 C 212.4375 369.257812 211.070312 375.65625 206.503906 378.859375 C 201.941406 381.601562 195.550781 380.6875 192.355469 375.65625 C 185.050781 364.6875 174.097656 358.289062 162.230469 358.289062 C 140.777344 358.289062 123.433594 379.773438 123.433594 406.742188 C 123.433594 433.257812 140.777344 454.742188 162.230469 454.742188 C 174.097656 454.742188 185.050781 448.34375 192.355469 437.371094 C 195.550781 432.800781 201.941406 431.429688 206.503906 434.628906 C 211.070312 437.828125 212.4375 443.769531 209.242188 448.34375 C 197.832031 465.253906 180.945312 474.855469 162.230469 474.855469 Z M 162.230469 474.855469 " fill-opacity="1" fill-rule="evenodd"/><path fill="#f5f5f5" d="M 135.757812 398.515625 L 91.027344 398.515625 C 85.550781 398.515625 80.988281 393.941406 80.988281 388.457031 C 80.988281 382.972656 85.550781 378.402344 91.027344 378.402344 L 135.757812 378.402344 C 141.691406 378.402344 145.800781 382.972656 145.800781 388.457031 C 145.800781 393.941406 141.691406 398.515625 135.757812 398.515625 Z M 135.757812 398.515625 " fill-opacity="1" fill-rule="evenodd"/><path fill="#f5f5f5" d="M 135.757812 435.085938 L 91.027344 435.085938 C 85.550781 435.085938 80.988281 430.515625 80.988281 424.570312 C 80.988281 419.085938 85.550781 414.515625 91.027344 414.515625 L 135.757812 414.515625 C 141.691406 414.515625 145.800781 419.085938 145.800781 424.570312 C 145.800781 430.515625 141.691406 435.085938 135.757812 435.085938 Z M 135.757812 435.085938 " fill-opacity="1" fill-rule="evenodd"/></svg>