<svg xmlns="http://www.w3.org/2000/svg" xmlns:xlink="http://www.w3.org/1999/xlink" width="1080" zoomAndPan="magnify" viewBox="0 0 810 809.999993" height="1080" preserveAspectRatio="xMidYMid meet" version="1.0"><defs><clipPath id="591df20951"><path d="M 268 732 L 542 732 L 542 787.515625 L 268 787.515625 Z M 268 732 " clip-rule="nonzero"/></clipPath><clipPath id="b3193dc449"><path d="M 350 22.515625 L 460 22.515625 L 460 132 L 350 132 Z M 350 22.515625 " clip-rule="nonzero"/></clipPath><clipPath id="92d7edb433"><path d="M 22.515625 391 L 269 391 L 269 638 L 22.515625 638 Z M 22.515625 391 " clip-rule="nonzero"/></clipPath><clipPath id="03e2d3f337"><path d="M 541 391 L 787.515625 391 L 787.515625 638 L 541 638 Z M 541 391 " clip-rule="nonzero"/></clipPath><clipPath id="cd6462d55c"><path d="M 565 414 L 787.515625 414 L 787.515625 638 L 565 638 Z M 565 414 " clip-rule="nonzero"/></clipPath></defs><path fill="#ffd522" d="M 772.660156 467.855469 L 686.253906 267.554688 C 710.332031 264.136719 730.308594 243.648438 730.308594 218.375 C 730.308594 199.589844 719.722656 182.6875 702.476562 173.976562 C 686.597656 165.953125 674.644531 190.542969 690.183594 198.394531 C 698.035156 202.324219 702.816406 210.007812 702.816406 218.375 C 702.816406 235.109375 684.207031 245.011719 669.519531 239.035156 C 498.933594 170.390625 310.925781 170.390625 140.167969 239.035156 C 125.480469 245.011719 106.871094 235.109375 106.871094 218.375 C 106.871094 210.007812 111.820312 202.324219 119.503906 198.394531 C 135.386719 190.542969 122.75 166.121094 107.210938 173.976562 C 90.136719 182.515625 79.378906 199.589844 79.378906 218.375 C 79.378906 244.332031 99.867188 263.796875 123.433594 267.382812 L 37.371094 467.855469 C 34.296875 474.855469 37.542969 482.878906 44.542969 485.785156 C 51.542969 488.6875 59.570312 485.613281 62.472656 478.613281 L 145.460938 286.335938 L 228.621094 478.78125 C 230.839844 483.90625 235.792969 486.980469 241.085938 486.980469 C 242.964844 486.980469 244.671875 486.636719 246.550781 485.785156 C 253.550781 482.710938 256.625 474.683594 253.722656 467.855469 L 163.730469 259.527344 C 319.976562 200.273438 490.222656 200.273438 646.46875 259.527344 L 556.476562 467.855469 C 553.402344 474.855469 556.648438 482.878906 563.648438 485.785156 C 570.652344 488.6875 578.675781 485.613281 581.578125 478.613281 L 664.566406 286.335938 L 747.726562 478.78125 C 749.949219 483.90625 754.898438 486.980469 760.191406 486.980469 C 762.070312 486.980469 763.777344 486.636719 765.65625 485.785156 C 772.488281 482.878906 775.730469 474.855469 772.660156 467.855469 Z M 772.660156 467.855469 " fill-opacity="1" fill-rule="nonzero"/><path fill="#b96340" d="M 364.03125 541.621094 L 445.996094 541.621094 L 445.996094 705.550781 L 364.03125 705.550781 Z M 364.03125 541.621094 " fill-opacity="1" fill-rule="nonzero"/><path fill="#91472d" d="M 418.675781 568.941406 L 418.675781 637.246094 C 418.675781 644.761719 412.527344 650.90625 405.015625 650.90625 L 364.03125 650.90625 L 364.03125 678.230469 L 445.996094 678.230469 L 445.996094 568.941406 Z M 418.675781 568.941406 " fill-opacity="1" fill-rule="nonzero"/><path fill="#b96340" d="M 377.691406 514.300781 L 432.335938 514.300781 L 432.335938 274.894531 C 432.335938 269.089844 433.359375 263.113281 435.066406 257.648438 L 454.191406 200.105469 C 457.4375 190.371094 454.875 179.441406 447.535156 172.097656 L 440.191406 164.757812 C 435.066406 159.632812 432.164062 152.632812 432.164062 145.460938 L 432.164062 118.140625 L 377.523438 118.140625 L 377.523438 145.460938 C 377.523438 152.632812 374.621094 159.632812 369.496094 164.757812 L 362.152344 172.097656 C 354.8125 179.441406 352.25 190.199219 355.496094 200.105469 L 374.621094 257.648438 C 376.496094 263.285156 377.351562 269.089844 377.351562 274.894531 L 377.351562 514.300781 Z M 377.691406 514.300781 " fill-opacity="1" fill-rule="nonzero"/><path fill="#b96340" d="M 377.691406 527.960938 L 432.335938 527.960938 L 432.335938 274.894531 C 432.335938 269.089844 433.359375 263.113281 435.066406 257.648438 L 454.191406 200.105469 C 457.4375 190.371094 454.875 179.441406 447.535156 172.097656 L 440.191406 164.757812 C 435.066406 159.632812 432.164062 152.632812 432.164062 145.460938 L 432.164062 118.140625 L 377.523438 118.140625 L 377.523438 145.460938 C 377.523438 152.632812 374.621094 159.632812 369.496094 164.757812 L 362.152344 172.097656 C 354.8125 179.441406 352.25 190.199219 355.496094 200.105469 L 374.621094 257.648438 C 376.496094 263.285156 377.351562 269.089844 377.351562 274.894531 L 377.351562 527.960938 Z M 377.691406 527.960938 " fill-opacity="1" fill-rule="nonzero"/><path fill="#91472d" d="M 454.363281 200.105469 L 435.238281 257.648438 C 433.359375 263.285156 432.335938 269.089844 432.335938 275.066406 L 432.335938 514.300781 L 377.691406 514.300781 L 377.691406 484.929688 L 391.867188 484.929688 C 399.378906 484.929688 405.527344 478.78125 405.527344 471.269531 L 405.527344 276.945312 C 405.527344 269.601562 406.550781 262.261719 408.941406 255.257812 L 428.238281 197.714844 C 429.945312 192.761719 428.578125 187.46875 424.992188 183.710938 L 417.652344 176.367188 C 409.796875 168.511719 405.699219 158.269531 405.699219 147.339844 L 405.183594 118.140625 L 432.335938 118.140625 L 432.335938 145.460938 C 432.335938 152.632812 435.238281 159.464844 440.191406 164.585938 L 447.703125 172.097656 C 455.046875 179.441406 457.609375 190.199219 454.363281 200.105469 Z M 454.363281 200.105469 " fill-opacity="1" fill-rule="nonzero"/><path fill="#a8b7d4" d="M 309.390625 732.871094 L 364.03125 760.191406 L 500.640625 732.871094 L 480.832031 693.253906 C 476.222656 684.035156 466.660156 678.230469 456.414062 678.230469 L 353.617188 678.230469 C 343.199219 678.230469 333.808594 684.035156 329.199219 693.253906 Z M 309.390625 732.871094 " fill-opacity="1" fill-rule="nonzero"/><path fill="#8394b2" d="M 480.832031 693.253906 C 476.222656 684.035156 466.660156 678.230469 456.414062 678.230469 L 441.386719 678.230469 L 445.144531 685.742188 C 449.753906 694.792969 443.09375 705.550781 432.847656 705.550781 L 323.050781 705.550781 L 309.390625 732.871094 L 500.640625 732.871094 Z M 480.832031 693.253906 " fill-opacity="1" fill-rule="nonzero"/><g clip-path="url(#591df20951)"><path fill="#333940" d="M 282.066406 787.515625 L 527.960938 787.515625 C 535.472656 787.515625 541.621094 781.367188 541.621094 773.855469 L 541.621094 746.53125 C 541.621094 739.019531 535.472656 732.871094 527.960938 732.871094 L 282.066406 732.871094 C 274.554688 732.871094 268.40625 739.019531 268.40625 746.53125 L 268.40625 773.855469 C 268.40625 781.367188 274.554688 787.515625 282.066406 787.515625 Z M 282.066406 787.515625 " fill-opacity="1" fill-rule="nonzero"/><path fill="#1d2126" d="M 527.960938 732.871094 L 514.300781 732.871094 L 514.300781 746.53125 C 514.300781 754.046875 508.152344 760.191406 500.640625 760.191406 L 268.40625 760.191406 L 268.40625 773.855469 C 268.40625 781.367188 274.554688 787.515625 282.066406 787.515625 L 527.960938 787.515625 C 535.472656 787.515625 541.621094 781.367188 541.621094 773.855469 L 541.621094 746.53125 C 541.621094 739.019531 535.472656 732.871094 527.960938 732.871094 Z M 527.960938 732.871094 " fill-opacity="1" fill-rule="nonzero"/></g><path fill="#333940" d="M 364.03125 568.941406 L 445.996094 568.941406 C 461.023438 568.941406 473.316406 556.648438 473.316406 541.621094 C 473.316406 526.59375 461.023438 514.300781 445.996094 514.300781 L 364.03125 514.300781 C 349.003906 514.300781 336.710938 526.59375 336.710938 541.621094 C 336.710938 556.648438 349.003906 568.941406 364.03125 568.941406 Z M 364.03125 568.941406 " fill-opacity="1" fill-rule="nonzero"/><path fill="#1d2126" d="M 459.316406 517.886719 C 457.609375 531.207031 446.167969 541.621094 432.335938 541.621094 L 350.371094 541.621094 C 345.589844 541.621094 340.980469 540.253906 337.050781 538.035156 C 336.882812 539.230469 336.710938 540.425781 336.710938 541.621094 C 336.710938 556.648438 349.003906 568.941406 364.03125 568.941406 L 445.996094 568.941406 C 461.023438 568.941406 473.316406 556.648438 473.316406 541.621094 C 473.316406 531.375 467.683594 522.496094 459.316406 517.886719 Z M 459.316406 517.886719 " fill-opacity="1" fill-rule="nonzero"/><g clip-path="url(#b3193dc449)"><path fill="#a8b7d4" d="M 459.65625 77.15625 C 459.65625 78.945312 459.570312 80.730469 459.394531 82.511719 C 459.21875 84.292969 458.957031 86.0625 458.605469 87.816406 C 458.257812 89.574219 457.824219 91.308594 457.304688 93.019531 C 456.785156 94.730469 456.183594 96.414062 455.496094 98.066406 C 454.8125 99.722656 454.046875 101.335938 453.207031 102.914062 C 452.363281 104.492188 451.441406 106.027344 450.449219 107.515625 C 449.453125 109.003906 448.390625 110.4375 447.253906 111.824219 C 446.117188 113.207031 444.917969 114.53125 443.652344 115.796875 C 442.386719 117.0625 441.0625 118.261719 439.679688 119.398438 C 438.296875 120.53125 436.859375 121.597656 435.371094 122.589844 C 433.882812 123.585938 432.351562 124.503906 430.773438 125.347656 C 429.195312 126.191406 427.578125 126.957031 425.925781 127.640625 C 424.273438 128.324219 422.589844 128.925781 420.875 129.445312 C 419.164062 129.964844 417.429688 130.402344 415.675781 130.75 C 413.917969 131.097656 412.152344 131.363281 410.371094 131.535156 C 408.589844 131.710938 406.804688 131.800781 405.015625 131.800781 C 403.226562 131.800781 401.4375 131.710938 399.660156 131.535156 C 397.878906 131.363281 396.109375 131.097656 394.355469 130.75 C 392.597656 130.402344 390.863281 129.964844 389.152344 129.445312 C 387.441406 128.925781 385.757812 128.324219 384.101562 127.640625 C 382.449219 126.957031 380.835938 126.191406 379.253906 125.347656 C 377.675781 124.503906 376.144531 123.585938 374.65625 122.589844 C 373.167969 121.597656 371.734375 120.53125 370.347656 119.398438 C 368.964844 118.261719 367.640625 117.0625 366.375 115.796875 C 365.109375 114.53125 363.910156 113.207031 362.773438 111.824219 C 361.640625 110.4375 360.574219 109.003906 359.582031 107.515625 C 358.585938 106.027344 357.667969 104.492188 356.824219 102.914062 C 355.980469 101.335938 355.214844 99.722656 354.53125 98.066406 C 353.847656 96.414062 353.242188 94.730469 352.722656 93.019531 C 352.203125 91.308594 351.769531 89.574219 351.421875 87.816406 C 351.074219 86.0625 350.808594 84.292969 350.632812 82.511719 C 350.460938 80.730469 350.371094 78.945312 350.371094 77.15625 C 350.371094 75.367188 350.460938 73.582031 350.632812 71.800781 C 350.808594 70.019531 351.070312 68.253906 351.421875 66.496094 C 351.769531 64.742188 352.203125 63.007812 352.722656 61.296875 C 353.242188 59.582031 353.847656 57.898438 354.53125 56.246094 C 355.214844 54.59375 355.980469 52.976562 356.824219 51.398438 C 357.667969 49.820312 358.585938 48.289062 359.582031 46.800781 C 360.574219 45.3125 361.640625 43.875 362.773438 42.492188 C 363.910156 41.109375 365.109375 39.785156 366.375 38.519531 C 367.640625 37.253906 368.964844 36.054688 370.347656 34.917969 C 371.734375 33.78125 373.167969 32.71875 374.65625 31.722656 C 376.144531 30.730469 377.675781 29.808594 379.253906 28.964844 C 380.835938 28.121094 382.449219 27.359375 384.101562 26.675781 C 385.757812 25.988281 387.441406 25.386719 389.152344 24.867188 C 390.863281 24.347656 392.597656 23.914062 394.355469 23.5625 C 396.109375 23.214844 397.878906 22.953125 399.660156 22.777344 C 401.4375 22.601562 403.226562 22.515625 405.015625 22.515625 C 406.804688 22.515625 408.589844 22.601562 410.371094 22.777344 C 412.152344 22.953125 413.917969 23.214844 415.675781 23.5625 C 417.429688 23.914062 419.164062 24.347656 420.875 24.867188 C 422.589844 25.386719 424.273438 25.988281 425.925781 26.675781 C 427.578125 27.359375 429.195312 28.121094 430.773438 28.964844 C 432.351562 29.808594 433.882812 30.730469 435.371094 31.722656 C 436.859375 32.71875 438.296875 33.78125 439.679688 34.917969 C 441.0625 36.054688 442.386719 37.253906 443.652344 38.519531 C 444.917969 39.785156 446.117188 41.109375 447.253906 42.492188 C 448.390625 43.875 449.453125 45.3125 450.449219 46.800781 C 451.441406 48.289062 452.363281 49.820312 453.207031 51.398438 C 454.046875 52.976562 454.8125 54.59375 455.496094 56.246094 C 456.183594 57.898438 456.785156 59.582031 457.304688 61.296875 C 457.824219 63.007812 458.257812 64.742188 458.605469 66.496094 C 458.957031 68.253906 459.21875 70.019531 459.394531 71.800781 C 459.570312 73.582031 459.65625 75.367188 459.65625 77.15625 Z M 459.65625 77.15625 " fill-opacity="1" fill-rule="nonzero"/></g><path fill="#8394b2" d="M 431.824219 29.855469 C 436.261719 37.882812 439.167969 46.933594 439.167969 56.667969 C 439.167969 86.890625 414.746094 111.308594 384.523438 111.308594 C 374.789062 111.308594 365.570312 108.578125 357.714844 103.964844 C 367.105469 120.53125 384.695312 131.800781 405.015625 131.800781 C 435.238281 131.800781 459.65625 107.382812 459.65625 77.15625 C 459.65625 56.835938 448.386719 39.25 431.824219 29.855469 Z M 431.824219 29.855469 " fill-opacity="1" fill-rule="nonzero"/><g clip-path="url(#92d7edb433)"><path fill="#ffa727" d="M 268.40625 514.300781 C 268.40625 516.3125 268.359375 518.324219 268.257812 520.332031 C 268.160156 522.34375 268.011719 524.347656 267.816406 526.351562 C 267.617188 528.351562 267.371094 530.351562 267.078125 532.339844 C 266.78125 534.332031 266.4375 536.3125 266.042969 538.285156 C 265.652344 540.257812 265.210938 542.222656 264.722656 544.171875 C 264.234375 546.125 263.695312 548.0625 263.113281 549.988281 C 262.527344 551.914062 261.898438 553.824219 261.21875 555.71875 C 260.542969 557.613281 259.820312 559.492188 259.046875 561.351562 C 258.277344 563.207031 257.464844 565.046875 256.601562 566.867188 C 255.742188 568.683594 254.839844 570.480469 253.890625 572.257812 C 252.941406 574.03125 251.949219 575.78125 250.914062 577.507812 C 249.882812 579.234375 248.804688 580.933594 247.6875 582.605469 C 246.570312 584.277344 245.410156 585.921875 244.210938 587.539062 C 243.011719 589.15625 241.777344 590.742188 240.5 592.296875 C 239.222656 593.851562 237.910156 595.375 236.558594 596.867188 C 235.207031 598.355469 233.820312 599.8125 232.398438 601.234375 C 230.972656 602.660156 229.515625 604.046875 228.027344 605.398438 C 226.535156 606.75 225.011719 608.0625 223.457031 609.339844 C 221.902344 610.617188 220.316406 611.851562 218.699219 613.050781 C 217.082031 614.25 215.4375 615.410156 213.765625 616.527344 C 212.09375 617.644531 210.394531 618.71875 208.667969 619.753906 C 206.941406 620.789062 205.191406 621.78125 203.417969 622.730469 C 201.644531 623.675781 199.847656 624.582031 198.027344 625.441406 C 196.207031 626.300781 194.371094 627.117188 192.511719 627.886719 C 190.652344 628.65625 188.773438 629.382812 186.878906 630.058594 C 184.984375 630.738281 183.074219 631.367188 181.148438 631.953125 C 179.226562 632.535156 177.285156 633.074219 175.335938 633.5625 C 173.382812 634.050781 171.417969 634.492188 169.445312 634.882812 C 167.472656 635.277344 165.492188 635.621094 163.5 635.914062 C 161.511719 636.210938 159.515625 636.457031 157.511719 636.65625 C 155.507812 636.851562 153.503906 637 151.492188 637.097656 C 149.484375 637.195312 147.472656 637.246094 145.460938 637.246094 C 143.449219 637.246094 141.4375 637.195312 139.429688 637.097656 C 137.417969 637 135.414062 636.851562 133.410156 636.65625 C 131.40625 636.457031 129.410156 636.210938 127.421875 635.914062 C 125.429688 635.621094 123.449219 635.277344 121.476562 634.882812 C 119.5 634.492188 117.539062 634.050781 115.585938 633.5625 C 113.636719 633.074219 111.695312 632.535156 109.769531 631.953125 C 107.847656 631.367188 105.9375 630.738281 104.042969 630.058594 C 102.148438 629.382812 100.269531 628.65625 98.410156 627.886719 C 96.550781 627.117188 94.714844 626.300781 92.894531 625.441406 C 91.074219 624.582031 89.277344 623.675781 87.503906 622.730469 C 85.730469 621.78125 83.980469 620.789062 82.253906 619.753906 C 80.527344 618.71875 78.828125 617.644531 77.15625 616.527344 C 75.480469 615.410156 73.835938 614.25 72.222656 613.050781 C 70.605469 611.851562 69.019531 610.617188 67.464844 609.339844 C 65.910156 608.0625 64.386719 606.75 62.894531 605.398438 C 61.402344 604.046875 59.949219 602.660156 58.523438 601.234375 C 57.101562 599.8125 55.714844 598.355469 54.363281 596.867188 C 53.011719 595.375 51.699219 593.851562 50.421875 592.296875 C 49.144531 590.742188 47.90625 589.15625 46.710938 587.539062 C 45.511719 585.921875 44.351562 584.277344 43.234375 582.605469 C 42.117188 580.933594 41.039062 579.234375 40.007812 577.507812 C 38.972656 575.78125 37.980469 574.03125 37.03125 572.257812 C 36.082031 570.480469 35.179688 568.683594 34.320312 566.867188 C 33.457031 565.046875 32.644531 563.207031 31.875 561.351562 C 31.101562 559.492188 30.378906 557.613281 29.703125 555.71875 C 29.023438 553.824219 28.390625 551.914062 27.808594 549.988281 C 27.222656 548.0625 26.6875 546.125 26.199219 544.171875 C 25.710938 542.222656 25.269531 540.257812 24.875 538.285156 C 24.484375 536.3125 24.140625 534.332031 23.84375 532.339844 C 23.550781 530.351562 23.304688 528.351562 23.105469 526.351562 C 22.910156 524.347656 22.761719 522.34375 22.664062 520.332031 C 22.5625 518.324219 22.515625 516.3125 22.515625 514.300781 C 22.515625 512.289062 22.5625 510.277344 22.664062 508.265625 C 22.761719 506.257812 22.910156 504.25 23.105469 502.25 C 23.304688 500.246094 23.550781 498.25 23.84375 496.261719 C 24.140625 494.269531 24.484375 492.289062 24.875 490.3125 C 25.269531 488.339844 25.710938 486.378906 26.199219 484.425781 C 26.6875 482.476562 27.222656 480.535156 27.808594 478.609375 C 28.390625 476.683594 29.023438 474.773438 29.703125 472.878906 C 30.378906 470.984375 31.101562 469.109375 31.875 467.25 C 32.644531 465.390625 33.457031 463.550781 34.320312 461.734375 C 35.179688 459.914062 36.082031 458.117188 37.03125 456.34375 C 37.980469 454.570312 38.972656 452.820312 40.007812 451.09375 C 41.039062 449.367188 42.117188 447.667969 43.234375 445.996094 C 44.351562 444.320312 45.511719 442.675781 46.710938 441.0625 C 47.90625 439.445312 49.144531 437.859375 50.421875 436.304688 C 51.699219 434.75 53.011719 433.226562 54.363281 431.734375 C 55.714844 430.242188 57.101562 428.785156 58.523438 427.363281 C 59.949219 425.941406 61.402344 424.554688 62.894531 423.203125 C 64.386719 421.851562 65.910156 420.539062 67.464844 419.261719 C 69.019531 417.984375 70.605469 416.746094 72.222656 415.546875 C 73.835938 414.351562 75.480469 413.191406 77.15625 412.074219 C 78.828125 410.957031 80.527344 409.878906 82.253906 408.84375 C 83.980469 407.8125 85.730469 406.820312 87.503906 405.871094 C 89.277344 404.921875 91.074219 404.019531 92.894531 403.15625 C 94.714844 402.296875 96.550781 401.480469 98.410156 400.710938 C 100.269531 399.941406 102.148438 399.21875 104.042969 398.539062 C 105.9375 397.863281 107.847656 397.230469 109.769531 396.648438 C 111.695312 396.0625 113.636719 395.527344 115.585938 395.039062 C 117.539062 394.550781 119.5 394.109375 121.476562 393.714844 C 123.449219 393.324219 125.429688 392.980469 127.421875 392.683594 C 129.410156 392.390625 131.40625 392.144531 133.410156 391.945312 C 135.414062 391.75 137.417969 391.601562 139.429688 391.5 C 141.4375 391.402344 143.449219 391.355469 145.460938 391.355469 C 147.472656 391.355469 149.484375 391.402344 151.492188 391.5 C 153.503906 391.601562 155.507812 391.75 157.511719 391.945312 C 159.515625 392.144531 161.511719 392.390625 163.5 392.683594 C 165.492188 392.980469 167.472656 393.324219 169.445312 393.714844 C 171.417969 394.109375 173.382812 394.550781 175.335938 395.039062 C 177.285156 395.527344 179.226562 396.0625 181.148438 396.648438 C 183.074219 397.230469 184.984375 397.863281 186.878906 398.539062 C 188.773438 399.21875 190.652344 399.941406 192.511719 400.710938 C 194.371094 401.480469 196.207031 402.296875 198.027344 403.15625 C 199.847656 404.019531 201.644531 404.921875 203.417969 405.871094 C 205.191406 406.820312 206.941406 407.8125 208.667969 408.84375 C 210.394531 409.878906 212.09375 410.957031 213.765625 412.074219 C 215.4375 413.191406 217.082031 414.351562 218.699219 415.546875 C 220.316406 416.746094 221.902344 417.984375 223.457031 419.261719 C 225.011719 420.539062 226.535156 421.851562 228.027344 423.203125 C 229.515625 424.554688 230.972656 425.941406 232.398438 427.363281 C 233.820312 428.785156 235.207031 430.242188 236.558594 431.734375 C 237.910156 433.226562 239.222656 434.75 240.5 436.304688 C 241.777344 437.859375 243.011719 439.445312 244.210938 441.0625 C 245.410156 442.675781 246.570312 444.320312 247.6875 445.996094 C 248.804688 447.667969 249.882812 449.367188 250.914062 451.09375 C 251.949219 452.820312 252.941406 454.570312 253.890625 456.34375 C 254.839844 458.117188 255.742188 459.914062 256.601562 461.734375 C 257.464844 463.550781 258.277344 465.390625 259.046875 467.25 C 259.820312 469.109375 260.542969 470.984375 261.21875 472.878906 C 261.898438 474.773438 262.527344 476.683594 263.113281 478.609375 C 263.699219 480.535156 264.234375 482.476562 264.722656 484.425781 C 265.210938 486.378906 265.652344 488.339844 266.042969 490.3125 C 266.4375 492.289062 266.78125 494.269531 267.078125 496.261719 C 267.371094 498.25 267.617188 500.246094 267.816406 502.25 C 268.011719 504.25 268.160156 506.257812 268.257812 508.265625 C 268.359375 510.277344 268.40625 512.289062 268.40625 514.300781 Z M 268.40625 514.300781 " fill-opacity="1" fill-rule="nonzero"/></g><g clip-path="url(#03e2d3f337)"><path fill="#ffa727" d="M 787.515625 514.300781 C 787.515625 516.3125 787.464844 518.324219 787.367188 520.332031 C 787.265625 522.34375 787.121094 524.347656 786.921875 526.351562 C 786.726562 528.351562 786.480469 530.351562 786.183594 532.339844 C 785.886719 534.332031 785.542969 536.3125 785.152344 538.285156 C 784.757812 540.257812 784.320312 542.222656 783.828125 544.171875 C 783.339844 546.125 782.804688 548.0625 782.21875 549.988281 C 781.636719 551.914062 781.003906 553.824219 780.328125 555.71875 C 779.648438 557.613281 778.925781 559.492188 778.15625 561.351562 C 777.386719 563.207031 776.570312 565.046875 775.710938 566.867188 C 774.851562 568.683594 773.945312 570.480469 772.996094 572.257812 C 772.046875 574.03125 771.058594 575.78125 770.023438 577.507812 C 768.988281 579.234375 767.910156 580.933594 766.792969 582.605469 C 765.675781 584.277344 764.519531 585.921875 763.320312 587.539062 C 762.121094 589.15625 760.882812 590.742188 759.605469 592.296875 C 758.332031 593.851562 757.015625 595.375 755.664062 596.867188 C 754.3125 598.355469 752.925781 599.8125 751.503906 601.234375 C 750.082031 602.660156 748.625 604.046875 747.132812 605.398438 C 745.644531 606.75 744.121094 608.0625 742.5625 609.339844 C 741.007812 610.617188 739.421875 611.851562 737.808594 613.050781 C 736.191406 614.25 734.546875 615.410156 732.875 616.527344 C 731.199219 617.644531 729.5 618.71875 727.773438 619.753906 C 726.050781 620.789062 724.300781 621.78125 722.523438 622.730469 C 720.75 623.675781 718.953125 624.582031 717.132812 625.441406 C 715.316406 626.300781 713.476562 627.117188 711.617188 627.886719 C 709.757812 628.65625 707.882812 629.382812 705.988281 630.058594 C 704.09375 630.738281 702.183594 631.367188 700.257812 631.953125 C 698.332031 632.535156 696.394531 633.074219 694.441406 633.5625 C 692.488281 634.050781 690.527344 634.492188 688.554688 634.882812 C 686.582031 635.277344 684.597656 635.621094 682.609375 635.914062 C 680.617188 636.210938 678.621094 636.457031 676.617188 636.65625 C 674.617188 636.851562 672.609375 637 670.601562 637.097656 C 668.589844 637.195312 666.578125 637.246094 664.566406 637.246094 C 662.554688 637.246094 660.546875 637.195312 658.535156 637.097656 C 656.527344 637 654.519531 636.851562 652.515625 636.65625 C 650.515625 636.457031 648.519531 636.210938 646.527344 635.914062 C 644.539062 635.621094 642.554688 635.277344 640.582031 634.882812 C 638.609375 634.492188 636.644531 634.050781 634.695312 633.5625 C 632.742188 633.074219 630.804688 632.535156 628.878906 631.953125 C 626.953125 631.367188 625.042969 630.738281 623.148438 630.058594 C 621.253906 629.382812 619.378906 628.65625 617.519531 627.886719 C 615.660156 627.117188 613.820312 626.300781 612 625.441406 C 610.183594 624.582031 608.386719 623.675781 606.613281 622.730469 C 604.835938 621.78125 603.085938 620.789062 601.359375 619.753906 C 599.636719 618.71875 597.933594 617.644531 596.261719 616.527344 C 594.589844 615.410156 592.945312 614.25 591.328125 613.050781 C 589.710938 611.851562 588.125 610.617188 586.570312 609.339844 C 585.015625 608.0625 583.492188 606.75 582.003906 605.398438 C 580.511719 604.046875 579.054688 602.660156 577.632812 601.234375 C 576.207031 599.8125 574.820312 598.355469 573.46875 596.867188 C 572.121094 595.375 570.804688 593.851562 569.527344 592.296875 C 568.253906 590.742188 567.015625 589.15625 565.816406 587.539062 C 564.617188 585.921875 563.460938 584.277344 562.339844 582.605469 C 561.222656 580.933594 560.148438 579.234375 559.113281 577.507812 C 558.078125 575.78125 557.085938 574.03125 556.140625 572.257812 C 555.191406 570.480469 554.285156 568.683594 553.425781 566.867188 C 552.566406 565.046875 551.75 563.207031 550.980469 561.351562 C 550.210938 559.492188 549.484375 557.613281 548.808594 555.71875 C 548.128906 553.824219 547.5 551.914062 546.914062 549.988281 C 546.332031 548.0625 545.792969 546.125 545.304688 544.171875 C 544.816406 542.222656 544.375 540.257812 543.984375 538.285156 C 543.589844 536.3125 543.246094 534.332031 542.953125 532.339844 C 542.65625 530.351562 542.410156 528.351562 542.214844 526.351562 C 542.015625 524.347656 541.867188 522.34375 541.769531 520.332031 C 541.671875 518.324219 541.621094 516.3125 541.621094 514.300781 C 541.621094 512.289062 541.671875 510.277344 541.769531 508.265625 C 541.867188 506.257812 542.015625 504.25 542.214844 502.25 C 542.410156 500.246094 542.65625 498.25 542.953125 496.261719 C 543.246094 494.269531 543.589844 492.289062 543.984375 490.3125 C 544.375 488.339844 544.816406 486.378906 545.304688 484.425781 C 545.792969 482.476562 546.332031 480.535156 546.914062 478.609375 C 547.5 476.683594 548.128906 474.773438 548.808594 472.878906 C 549.484375 470.984375 550.210938 469.109375 550.980469 467.25 C 551.75 465.390625 552.566406 463.550781 553.425781 461.734375 C 554.285156 459.914062 555.191406 458.117188 556.140625 456.34375 C 557.085938 454.570312 558.078125 452.820312 559.113281 451.09375 C 560.148438 449.367188 561.222656 447.667969 562.339844 445.996094 C 563.460938 444.320312 564.617188 442.675781 565.816406 441.0625 C 567.015625 439.445312 568.253906 437.859375 569.527344 436.304688 C 570.804688 434.75 572.121094 433.226562 573.46875 431.734375 C 574.820312 430.242188 576.207031 428.785156 577.632812 427.363281 C 579.054688 425.941406 580.511719 424.554688 582.003906 423.203125 C 583.492188 421.851562 585.015625 420.539062 586.570312 419.261719 C 588.125 417.984375 589.710938 416.746094 591.328125 415.546875 C 592.945312 414.351562 594.589844 413.191406 596.261719 412.074219 C 597.933594 410.957031 599.636719 409.878906 601.359375 408.84375 C 603.085938 407.8125 604.835938 406.820312 606.613281 405.871094 C 608.386719 404.921875 610.183594 404.019531 612 403.15625 C 613.820312 402.296875 615.660156 401.480469 617.519531 400.710938 C 619.378906 399.941406 621.253906 399.21875 623.148438 398.539062 C 625.042969 397.863281 626.953125 397.230469 628.878906 396.648438 C 630.804688 396.0625 632.742188 395.527344 634.695312 395.039062 C 636.644531 394.550781 638.609375 394.109375 640.582031 393.714844 C 642.554688 393.324219 644.539062 392.980469 646.527344 392.683594 C 648.519531 392.390625 650.515625 392.144531 652.515625 391.945312 C 654.519531 391.75 656.527344 391.601562 658.535156 391.5 C 660.542969 391.402344 662.554688 391.355469 664.566406 391.355469 C 666.578125 391.355469 668.589844 391.402344 670.601562 391.5 C 672.609375 391.601562 674.617188 391.75 676.617188 391.945312 C 678.621094 392.144531 680.617188 392.390625 682.609375 392.683594 C 684.597656 392.980469 686.582031 393.324219 688.554688 393.714844 C 690.527344 394.109375 692.488281 394.550781 694.441406 395.039062 C 696.394531 395.527344 698.332031 396.0625 700.257812 396.648438 C 702.183594 397.230469 704.09375 397.863281 705.988281 398.539062 C 707.882812 399.21875 709.757812 399.941406 711.617188 400.710938 C 713.476562 401.480469 715.316406 402.296875 717.132812 403.15625 C 718.953125 404.019531 720.75 404.921875 722.523438 405.871094 C 724.300781 406.820312 726.050781 407.8125 727.773438 408.84375 C 729.5 409.878906 731.199219 410.957031 732.875 412.074219 C 734.546875 413.191406 736.191406 414.351562 737.808594 415.546875 C 739.421875 416.746094 741.007812 417.984375 742.5625 419.261719 C 744.121094 420.539062 745.644531 421.851562 747.132812 423.203125 C 748.625 424.554688 750.082031 425.941406 751.503906 427.363281 C 752.925781 428.785156 754.3125 430.242188 755.664062 431.734375 C 757.015625 433.226562 758.332031 434.75 759.605469 436.304688 C 760.882812 437.859375 762.121094 439.445312 763.320312 441.0625 C 764.519531 442.675781 765.675781 444.320312 766.792969 445.996094 C 767.910156 447.667969 768.988281 449.367188 770.023438 451.09375 C 771.058594 452.820312 772.046875 454.570312 772.996094 456.34375 C 773.945312 458.117188 774.851562 459.914062 775.710938 461.734375 C 776.570312 463.550781 777.386719 465.390625 778.15625 467.25 C 778.925781 469.109375 779.648438 470.984375 780.328125 472.878906 C 781.003906 474.773438 781.636719 476.683594 782.21875 478.609375 C 782.804688 480.535156 783.339844 482.476562 783.828125 484.425781 C 784.320312 486.378906 784.757812 488.339844 785.152344 490.3125 C 785.542969 492.289062 785.886719 494.269531 786.183594 496.261719 C 786.480469 498.25 786.726562 500.246094 786.921875 502.25 C 787.121094 504.25 787.265625 506.257812 787.367188 508.265625 C 787.464844 510.277344 787.515625 512.289062 787.515625 514.300781 Z M 787.515625 514.300781 " fill-opacity="1" fill-rule="nonzero"/></g><path fill="#db7f07" d="M 268.40625 514.300781 C 268.40625 582.261719 213.421875 637.246094 145.460938 637.246094 C 104.480469 637.246094 68.277344 617.269531 46.078125 586.359375 C 66.230469 601.214844 91.160156 609.925781 118.140625 609.925781 C 186.101562 609.925781 241.085938 554.941406 241.085938 486.980469 C 241.085938 460 232.378906 435.066406 217.519531 414.917969 C 248.429688 437.117188 268.40625 473.316406 268.40625 514.300781 Z M 268.40625 514.300781 " fill-opacity="1" fill-rule="nonzero"/><g clip-path="url(#cd6462d55c)"><path fill="#db7f07" d="M 787.515625 514.300781 C 787.515625 582.261719 732.53125 637.246094 664.566406 637.246094 C 623.585938 637.246094 587.386719 617.269531 565.1875 586.359375 C 585.335938 601.046875 610.4375 609.925781 637.246094 609.925781 C 705.207031 609.925781 760.191406 554.941406 760.191406 486.980469 C 760.191406 460 751.484375 435.066406 736.628906 414.917969 C 767.535156 437.117188 787.515625 473.316406 787.515625 514.300781 Z M 787.515625 514.300781 " fill-opacity="1" fill-rule="nonzero"/></g><path fill="#ffd522" d="M 657.738281 486.980469 L 691.890625 486.980469 C 709.476562 486.980469 709.648438 459.65625 691.890625 459.65625 L 678.230469 459.65625 C 678.230469 459.65625 678.230469 445.996094 678.230469 445.996094 C 678.230469 428.410156 650.90625 428.238281 650.90625 445.996094 L 650.90625 460.339844 C 635.367188 463.585938 623.585938 477.246094 623.585938 493.808594 C 623.585938 512.59375 638.953125 527.960938 657.738281 527.960938 L 671.398438 527.960938 C 675.15625 527.960938 678.230469 531.035156 678.230469 534.792969 C 678.230469 538.546875 675.15625 541.621094 671.398438 541.621094 C 671.398438 541.621094 637.417969 541.621094 637.246094 541.621094 C 619.828125 541.621094 619.488281 568.941406 637.246094 568.941406 L 650.90625 568.941406 L 650.90625 582.605469 C 650.90625 600.191406 678.230469 600.191406 678.230469 582.605469 L 678.230469 568.261719 C 693.769531 565.015625 705.550781 551.355469 705.550781 534.792969 C 705.550781 516.007812 690.183594 500.640625 671.398438 500.640625 L 657.738281 500.640625 C 653.980469 500.640625 650.90625 497.566406 650.90625 493.808594 C 650.90625 490.050781 653.980469 486.980469 657.738281 486.980469 Z M 657.738281 486.980469 " fill-opacity="1" fill-rule="nonzero"/><path fill="#ffd522" d="M 145.460938 432.847656 C 138.628906 432.847656 131.800781 437.289062 131.800781 445.996094 L 131.800781 461.535156 C 108.234375 467.683594 90.816406 488.855469 90.816406 514.300781 C 90.816406 539.742188 108.234375 560.917969 131.800781 567.066406 L 131.800781 582.605469 C 131.800781 599.679688 159.121094 600.363281 159.121094 582.605469 L 159.121094 567.066406 C 169.539062 564.332031 179.101562 558.867188 186.273438 550.671875 C 197.882812 537.351562 177.222656 519.421875 165.609375 532.742188 C 160.660156 538.378906 153.316406 541.792969 145.460938 541.792969 C 135.386719 541.792969 126.675781 536.328125 121.894531 528.132812 L 145.460938 528.132812 C 162.707031 528.132812 163.21875 500.808594 145.460938 500.808594 L 121.894531 500.808594 C 126.675781 492.613281 135.386719 487.148438 145.460938 487.148438 C 153.316406 487.148438 160.660156 490.394531 165.609375 496.199219 C 177.222656 509.519531 197.882812 491.589844 186.273438 478.269531 C 179.101562 470.074219 169.707031 464.4375 159.121094 461.878906 C 159.121094 461.878906 159.121094 446.339844 159.121094 446.339844 C 159.121094 437.289062 152.292969 432.847656 145.460938 432.847656 Z M 145.460938 432.847656 " fill-opacity="1" fill-rule="nonzero"/><path fill="#8394b2" d="M 418.675781 77.15625 C 418.675781 78.054688 418.585938 78.941406 418.414062 79.824219 C 418.238281 80.703125 417.976562 81.554688 417.636719 82.386719 C 417.292969 83.214844 416.871094 84 416.371094 84.746094 C 415.875 85.492188 415.308594 86.183594 414.675781 86.816406 C 414.039062 87.449219 413.351562 88.015625 412.605469 88.515625 C 411.859375 89.015625 411.070312 89.433594 410.242188 89.777344 C 409.414062 90.121094 408.558594 90.378906 407.679688 90.554688 C 406.800781 90.730469 405.910156 90.816406 405.015625 90.816406 C 404.117188 90.816406 403.230469 90.730469 402.347656 90.554688 C 401.46875 90.378906 400.617188 90.121094 399.785156 89.777344 C 398.957031 89.433594 398.171875 89.015625 397.425781 88.515625 C 396.679688 88.015625 395.988281 87.449219 395.355469 86.816406 C 394.71875 86.183594 394.152344 85.492188 393.65625 84.746094 C 393.15625 84 392.738281 83.214844 392.394531 82.386719 C 392.050781 81.554688 391.792969 80.703125 391.617188 79.824219 C 391.441406 78.941406 391.355469 78.054688 391.355469 77.15625 C 391.355469 76.261719 391.441406 75.371094 391.617188 74.492188 C 391.792969 73.613281 392.050781 72.757812 392.394531 71.929688 C 392.738281 71.101562 393.15625 70.3125 393.65625 69.566406 C 394.152344 68.820312 394.71875 68.132812 395.355469 67.496094 C 395.988281 66.863281 396.679688 66.296875 397.425781 65.796875 C 398.171875 65.300781 398.957031 64.878906 399.785156 64.535156 C 400.617188 64.191406 401.46875 63.933594 402.347656 63.757812 C 403.230469 63.585938 404.117188 63.496094 405.015625 63.496094 C 405.910156 63.496094 406.800781 63.585938 407.679688 63.757812 C 408.558594 63.933594 409.414062 64.191406 410.242188 64.535156 C 411.070312 64.878906 411.859375 65.300781 412.605469 65.796875 C 413.351562 66.296875 414.039062 66.863281 414.675781 67.496094 C 415.308594 68.132812 415.875 68.820312 416.371094 69.566406 C 416.871094 70.3125 417.292969 71.101562 417.636719 71.929688 C 417.976562 72.757812 418.238281 73.613281 418.414062 74.492188 C 418.585938 75.371094 418.675781 76.261719 418.675781 77.15625 Z M 418.675781 77.15625 " fill-opacity="1" fill-rule="nonzero"/><path fill="#91472d" d="M 418.675781 200.105469 C 418.675781 201 418.585938 201.890625 418.414062 202.769531 C 418.238281 203.648438 417.976562 204.503906 417.636719 205.332031 C 417.292969 206.160156 416.871094 206.949219 416.371094 207.691406 C 415.875 208.4375 415.308594 209.128906 414.675781 209.761719 C 414.039062 210.398438 413.351562 210.964844 412.605469 211.460938 C 411.859375 211.960938 411.070312 212.382812 410.242188 212.722656 C 409.414062 213.066406 408.558594 213.328125 407.679688 213.5 C 406.800781 213.675781 405.910156 213.765625 405.015625 213.765625 C 404.117188 213.765625 403.230469 213.675781 402.347656 213.5 C 401.46875 213.328125 400.617188 213.066406 399.785156 212.722656 C 398.957031 212.382812 398.171875 211.960938 397.425781 211.460938 C 396.679688 210.964844 395.988281 210.398438 395.355469 209.761719 C 394.71875 209.128906 394.152344 208.4375 393.65625 207.691406 C 393.15625 206.949219 392.738281 206.160156 392.394531 205.332031 C 392.050781 204.503906 391.792969 203.648438 391.617188 202.769531 C 391.441406 201.890625 391.355469 201 391.355469 200.105469 C 391.355469 199.207031 391.441406 198.316406 391.617188 197.4375 C 391.792969 196.558594 392.050781 195.703125 392.394531 194.875 C 392.738281 194.046875 393.15625 193.261719 393.65625 192.515625 C 394.152344 191.769531 394.71875 191.078125 395.355469 190.445312 C 395.988281 189.808594 396.679688 189.242188 397.425781 188.746094 C 398.171875 188.246094 398.957031 187.824219 399.785156 187.484375 C 400.617188 187.140625 401.46875 186.878906 402.347656 186.707031 C 403.230469 186.53125 404.117188 186.441406 405.015625 186.441406 C 405.910156 186.441406 406.800781 186.53125 407.679688 186.707031 C 408.558594 186.878906 409.414062 187.140625 410.242188 187.484375 C 411.070312 187.824219 411.859375 188.246094 412.605469 188.746094 C 413.351562 189.242188 414.039062 189.808594 414.675781 190.445312 C 415.308594 191.078125 415.875 191.769531 416.371094 192.515625 C 416.871094 193.261719 417.292969 194.046875 417.636719 194.875 C 417.976562 195.703125 418.238281 196.558594 418.414062 197.4375 C 418.585938 198.316406 418.675781 199.207031 418.675781 200.105469 Z M 418.675781 200.105469 " fill-opacity="1" fill-rule="nonzero"/></svg>